<svg xmlns="http://www.w3.org/2000/svg" width="1168" height="460" viewBox="0 0 1168 460"><rect x="0" y="0" width="1168" height="460" fill="white"/><g font-family="Arial, sans-serif"><text x="24" y="28" font-size="21" fill="#243249" text-anchor="start">AG1 / OF8 · A sample can jump across an entire narrow region</text><text x="24" y="49" font-size="12" fill="#243249" text-anchor="start">Code: svg_path/arrangement.dual_face_walk_sample; offset.outline_contour_probe</text><text x="24" y="67" font-size="11" fill="#8090a2" text-anchor="start">Blue/purple: actual contours    Trial point: algorithm scale illustration, not a logged private sample</text><rect x="24" y="83" width="550" height="361" rx="9" fill="#fafbfd" stroke="#dce3ea"/><text x="40" y="109" font-size="16" fill="#243249" text-anchor="start">Two actual nested squares</text><defs><clipPath id="panel0"><rect x="34" y="123" width="530" height="273"/></clipPath></defs><g clip-path="url(#panel0)"><path d="M 0 0 H 10" transform="matrix(22.7 0 0 22.7 185.5 137)" fill="none" stroke="#2463a6" stroke-width="2" stroke-opacity=".85" vector-effect="non-scaling-stroke"/><path d="M 10 0 V 10" transform="matrix(22.7 0 0 22.7 185.5 137)" fill="none" stroke="#2463a6" stroke-width="2" stroke-opacity=".85" vector-effect="non-scaling-stroke"/><path d="M 10 10 H 0" transform="matrix(22.7 0 0 22.7 185.5 137)" fill="none" stroke="#2463a6" stroke-width="2" stroke-opacity=".85" vector-effect="non-scaling-stroke"/><path d="M 0 10 V 0" transform="matrix(22.7 0 0 22.7 185.5 137)" fill="none" stroke="#2463a6" stroke-width="2" stroke-opacity=".85" vector-effect="non-scaling-stroke"/><path d="M 0.00001 0.00001 H 9.99999" transform="matrix(22.7 0 0 22.7 185.5 137)" fill="none" stroke="#8650b5" stroke-width="2" stroke-opacity=".85" vector-effect="non-scaling-stroke"/><path d="M 9.99999 0.00001 V 9.99999" transform="matrix(22.7 0 0 22.7 185.5 137)" fill="none" stroke="#8650b5" stroke-width="2" stroke-opacity=".85" vector-effect="non-scaling-stroke"/><path d="M 9.99999 9.99999 H 0.00001" transform="matrix(22.7 0 0 22.7 185.5 137)" fill="none" stroke="#8650b5" stroke-width="2" stroke-opacity=".85" vector-effect="non-scaling-stroke"/><path d="M 0.00001 9.99999 V 0.00001" transform="matrix(22.7 0 0 22.7 185.5 137)" fill="none" stroke="#8650b5" stroke-width="2" stroke-opacity=".85" vector-effect="non-scaling-stroke"/></g><text x="40" y="412" font-size="12" fill="#243249" text-anchor="start">Inset = 0.00001; whole square side = 10.</text><text x="40" y="430" font-size="12" fill="#243249" text-anchor="start">The two outlines are visually coincident at this scale.</text><rect x="594" y="83" width="550" height="361" rx="9" fill="#fafbfd" stroke="#dce3ea"/><text x="610" y="109" font-size="16" fill="#243249" text-anchor="start">Top-edge close-up; vertical scale exaggerated</text><defs><clipPath id="panel1"><rect x="604" y="123" width="530" height="273"/></clipPath></defs><g clip-path="url(#panel1)"><path d="M 0 0 H 10" transform="matrix(1184.9999999999989 0 0 189166.66666666666 -5055.9999999999945 155.91666666666669)" fill="none" stroke="#2463a6" stroke-width="2" stroke-opacity=".85" vector-effect="non-scaling-stroke"/><path d="M 10 0 V 10" transform="matrix(1184.9999999999989 0 0 189166.66666666666 -5055.9999999999945 155.91666666666669)" fill="none" stroke="#2463a6" stroke-width="2" stroke-opacity=".85" vector-effect="non-scaling-stroke"/><path d="M 10 10 H 0" transform="matrix(1184.9999999999989 0 0 189166.66666666666 -5055.9999999999945 155.91666666666669)" fill="none" stroke="#2463a6" stroke-width="2" stroke-opacity=".85" vector-effect="non-scaling-stroke"/><path d="M 0 10 V 0" transform="matrix(1184.9999999999989 0 0 189166.66666666666 -5055.9999999999945 155.91666666666669)" fill="none" stroke="#2463a6" stroke-width="2" stroke-opacity=".85" vector-effect="non-scaling-stroke"/><path d="M 0.00001 0.00001 H 9.99999" transform="matrix(1184.9999999999989 0 0 189166.66666666666 -5055.9999999999945 155.91666666666669)" fill="none" stroke="#8650b5" stroke-width="2" stroke-opacity=".85" vector-effect="non-scaling-stroke"/><path d="M 9.99999 0.00001 V 9.99999" transform="matrix(1184.9999999999989 0 0 189166.66666666666 -5055.9999999999945 155.91666666666669)" fill="none" stroke="#8650b5" stroke-width="2" stroke-opacity=".85" vector-effect="non-scaling-stroke"/><path d="M 9.99999 9.99999 H 0.00001" transform="matrix(1184.9999999999989 0 0 189166.66666666666 -5055.9999999999945 155.91666666666669)" fill="none" stroke="#8650b5" stroke-width="2" stroke-opacity=".85" vector-effect="non-scaling-stroke"/><path d="M 0.00001 9.99999 V 0.00001" transform="matrix(1184.9999999999989 0 0 189166.66666666666 -5055.9999999999945 155.91666666666669)" fill="none" stroke="#8650b5" stroke-width="2" stroke-opacity=".85" vector-effect="non-scaling-stroke"/><circle cx="869" cy="345.08333333333337" r="4" fill="#d43d46"/><circle cx="869" cy="156.8625" r="4" fill="#16836a"/><path d="M869,155.91666666666669 L869,345.08333333333337 M865.8846532615308,337.7148453813103 L869,345.08333333333337 L872.1153467384692,337.7148453813103" stroke="#d43d46" stroke-width="2" fill="none"/></g><text x="804" y="365.08333333333337" font-size="12" fill="#243249" text-anchor="start">trial point: y = 0.001</text><text x="610" y="412" font-size="12" fill="#243249" text-anchor="start">Probe location illustrates chord × 10⁻⁴ on this edge.</text><text x="610" y="430" font-size="12" fill="#243249" text-anchor="start">It crosses the inner contour before it is tested.</text></g></svg>