<svg xmlns="http://www.w3.org/2000/svg" width="1168" height="460" viewBox="0 0 1168 460"><rect x="0" y="0" width="1168" height="460" fill="white"/><g font-family="Arial, sans-serif"><text x="24" y="28" font-size="21" fill="#243249" text-anchor="start">ST1 · Zero-length visible dashes still have round caps</text><text x="24" y="49" font-size="12" fill="#243249" text-anchor="start">Code: svg_path/stroke.dash_start</text><text x="24" y="67" font-size="11" fill="#8090a2" text-anchor="start">Blue: source / reference    Red: current output    Green: expected / comparison</text><rect x="24" y="83" width="550" height="361" rx="9" fill="#fafbfd" stroke="#dce3ea"/><text x="40" y="109" font-size="16" fill="#243249" text-anchor="start">Expected dotted stroke: [0, 2], width 1</text><defs><clipPath id="panel0"><rect x="34" y="123" width="530" height="273"/></clipPath></defs><g clip-path="url(#panel0)"><path d="M 0 0 H 5" transform="matrix(79 0 0 79 101.5 250.5)" fill="none" stroke="#8090a2" stroke-width="1" stroke-opacity=".85" vector-effect="non-scaling-stroke"/><circle cx="101.5" cy="250.5" r="39.5" fill="#16836a"/><circle cx="259.5" cy="250.5" r="39.5" fill="#16836a"/><circle cx="417.5" cy="250.5" r="39.5" fill="#16836a"/></g><text x="40" y="412" font-size="12" fill="#243249" text-anchor="start">Green discs illustrate the requested round caps.</text><text x="40" y="430" font-size="12" fill="#243249" text-anchor="start">Positions 0, 2, 4; not a library-generated result.</text><rect x="594" y="83" width="550" height="361" rx="9" fill="#fafbfd" stroke="#dce3ea"/><text x="610" y="109" font-size="16" fill="#243249" text-anchor="start">Current library returns an empty Path</text><defs><clipPath id="panel1"><rect x="604" y="123" width="530" height="273"/></clipPath></defs><g clip-path="url(#panel1)"><path d="M 0 0 H 5" transform="matrix(79 0 0 79 671.5 250.5)" fill="none" stroke="#8090a2" stroke-width="1" stroke-opacity=".85" vector-effect="non-scaling-stroke"/></g><text x="610" y="412" font-size="12" fill="#243249" text-anchor="start">Grey guide is the source, not surviving stroke geometry.</text><text x="610" y="430" font-size="12" fill="#243249" text-anchor="start">Visible zero-length intervals are discarded.</text></g></svg>