<svg xmlns="http://www.w3.org/2000/svg" viewBox="0 0 730 220" width="730" height="220">
  <rect x="0" y="0" width="730" height="220" style="fill: #ffffff" />
  <rect x="8" y="18" width="222" height="184" style="fill: #f8fafc; stroke: #cbd5e1; stroke-width: 1.4" />
  <path d="M 29.54256 125.61157 C 35.21633 114.54771 41.77495 106.13174 49.84773 100.47796 C 53.87102 97.66024 58.23239 95.60593 62.69283 94.37696 C 67.15358 93.14791 71.64386 92.75215 75.93508 92.95278 C 80.23095 93.15362 84.33171 93.93317 88.23718 95.03249 C 92.14602 96.13276 95.87642 97.5571 99.4872 99.14362 C 106.70259 102.31395 113.49444 106.14114 120.01925 109.74532 C 126.53845 113.3464 132.7831 116.72279 138.52101 119.12564 C 141.38769 120.32612 144.11598 121.28282 146.65509 121.94727 C 149.19672 122.61238 151.53848 122.98408 153.68616 123.07504 C 155.83709 123.16614 157.79508 122.98745 159.71424 122.52139 C 161.634 122.05518 163.55401 121.29827 165.64221 120.04661 C 169.79062 117.56005 174.78538 112.91284 180.21369 104.44467 L 203.78631 119.55533 C 196.71462 130.58716 188.89688 138.75245 180.03748 144.06277 C 175.62177 146.70955 170.98905 148.59716 166.32189 149.73056 C 161.65414 150.86411 156.99104 151.24011 152.50134 151.04996 C 148.0084 150.85967 143.69 150.11419 139.56659 149.03515 C 135.44066 147.95546 131.49903 146.54107 127.70555 144.95248 C 120.12315 141.77721 113.08655 137.9036 106.48075 134.25468 C 99.88056 130.60886 93.70366 127.18605 88.22374 124.77825 C 85.48686 123.57571 82.93797 122.62896 80.65052 121.98509 C 78.35969 121.34026 76.34717 121.00263 74.62742 120.92222 C 72.90301 120.8416 71.47533 121.00052 70.13041 121.37108 C 68.78519 121.74173 67.4532 122.33194 65.91008 123.41267 C 62.85005 125.55576 58.78367 129.95229 54.45744 138.38843 Z" style="fill: #fed7aa; stroke: #7c2d12; stroke-width: 2.5; stroke-linejoin: round" />
  <path d="M 42 132 C 82 54 142 190 192 112" style="fill: none; stroke: #4c1d95; stroke-width: 2; stroke-dasharray: 5 5; stroke-linecap: round" />
  <path d="M 154.45437 123.60767 L 144.96664 126.76726 L 146.97423 116.97085 Z" style="fill: #7c2d12; stroke: none" />
  <rect x="258" y="18" width="222" height="184" style="fill: #f8fafc; stroke: #cbd5e1; stroke-width: 1.4" />
  <path d="M 279.54256 125.61157 C 285.21633 114.54771 291.77495 106.13174 299.84773 100.47796 C 303.87102 97.66024 308.23239 95.60593 312.69283 94.37696 C 317.15358 93.14791 321.64386 92.75215 325.93508 92.95278 C 330.23095 93.15362 334.33171 93.93317 338.23718 95.03249 C 342.14602 96.13276 345.87642 97.5571 349.4872 99.14362 C 356.70259 102.31395 363.49444 106.14114 370.01925 109.74532 C 376.53845 113.3464 382.7831 116.72279 388.52101 119.12564 C 391.38769 120.32612 394.11598 121.28282 396.65509 121.94727 C 399.19672 122.61238 401.53848 122.98408 403.68616 123.07504 C 405.83709 123.16614 407.79508 122.98745 409.71424 122.52139 C 411.634 122.05518 413.55401 121.29827 415.64221 120.04661 C 419.79062 117.56005 424.78538 112.91284 430.21369 104.44467 L 437.76902 92.65837 L 461.34163 107.76902 L 453.78631 119.55533 C 446.71462 130.58716 438.89688 138.75245 430.03748 144.06277 C 425.62177 146.70955 420.98905 148.59716 416.32189 149.73056 C 411.65414 150.86411 406.99104 151.24011 402.50134 151.04996 C 398.0084 150.85967 393.69 150.11419 389.56659 149.03515 C 385.44066 147.95546 381.49903 146.54107 377.70555 144.95248 C 370.12315 141.77721 363.08655 137.9036 356.48075 134.25468 C 349.88056 130.60886 343.70366 127.18605 338.22374 124.77825 C 335.48686 123.57571 332.93797 122.62896 330.65052 121.98509 C 328.35969 121.34026 326.34717 121.00263 324.62742 120.92222 C 322.90301 120.8416 321.47533 121.00052 320.13041 121.37108 C 318.78519 121.74173 317.4532 122.33194 315.91008 123.41267 C 312.85005 125.55576 308.78367 129.95229 304.45744 138.38843 L 298.06901 150.84588 L 273.15412 138.06901 Z" style="fill: #fed7aa; stroke: #7c2d12; stroke-width: 2.5; stroke-linejoin: round" />
  <path d="M 292 132 C 332 54 392 190 442 112" style="fill: none; stroke: #4c1d95; stroke-width: 2; stroke-dasharray: 5 5; stroke-linecap: round" />
  <path d="M 421.73928 115.92973 L 417.41722 124.94747 L 411.76865 116.69558 Z" style="fill: #7c2d12; stroke: none" />
  <rect x="508" y="18" width="222" height="184" style="fill: #f8fafc; stroke: #cbd5e1; stroke-width: 1.4" />
  <path d="M 529.54256 125.61157 C 535.21633 114.54771 541.77495 106.13174 549.84773 100.47796 C 553.87102 97.66024 558.23239 95.60593 562.69283 94.37696 C 567.15358 93.14791 571.64386 92.75215 575.93508 92.95278 C 580.23095 93.15362 584.33171 93.93317 588.23718 95.03249 C 592.14602 96.13276 595.87642 97.5571 599.4872 99.14362 C 606.70259 102.31395 613.49444 106.14114 620.01925 109.74532 C 626.53845 113.3464 632.7831 116.72279 638.52101 119.12564 C 641.38769 120.32612 644.11598 121.28282 646.65509 121.94727 C 649.19672 122.61238 651.53848 122.98408 653.68616 123.07504 C 655.83709 123.16614 657.79508 122.98745 659.71424 122.52139 C 661.634 122.05518 663.55401 121.29827 665.64221 120.04661 C 669.79062 117.56005 674.78538 112.91284 680.21369 104.44467 A 14 14 0 0 1 703.78631 119.55533 C 696.71462 130.58716 688.89688 138.75245 680.03748 144.06277 C 675.62177 146.70955 670.98905 148.59716 666.32189 149.73056 C 661.65414 150.86411 656.99104 151.24011 652.50134 151.04996 C 648.0084 150.85967 643.69 150.11419 639.56659 149.03515 C 635.44066 147.95546 631.49903 146.54107 627.70555 144.95248 C 620.12315 141.77721 613.08655 137.9036 606.48075 134.25468 C 599.88056 130.60886 593.70366 127.18605 588.22374 124.77825 C 585.48686 123.57571 582.93797 122.62896 580.65052 121.98509 C 578.35969 121.34026 576.34717 121.00263 574.62742 120.92222 C 572.90301 120.8416 571.47533 121.00052 570.13041 121.37108 C 568.78519 121.74173 567.4532 122.33194 565.91008 123.41267 C 562.85005 125.55576 558.78367 129.95229 554.45744 138.38843 A 14 14 0 0 1 529.54256 125.61157 Z" style="fill: #fed7aa; stroke: #7c2d12; stroke-width: 2.5; stroke-linejoin: round" />
  <path d="M 542 132 C 582 54 642 190 692 112" style="fill: none; stroke: #4c1d95; stroke-width: 2; stroke-dasharray: 5 5; stroke-linecap: round" />
  <path d="M 665.19884 121.22973 L 657.91596 128.08244 L 655.62278 118.34892 Z" style="fill: #7c2d12; stroke: none" />
</svg>