<svg xmlns="http://www.w3.org/2000/svg" viewBox="0 0 900 260" width="900" height="260">
  <rect x="0" y="0" width="900" height="260" style="fill: #f8fafc; stroke: none" />
  <text x="18" y="25" font-size="15" style="fill: #0f172a; font-family: system-ui; font-weight: 600">edge-tangent rectangles</text>
  <text x="150" y="48" font-size="11" style="fill: #475569; font-family: system-ui; text-anchor: middle">operands</text>
  <text x="450" y="48" font-size="11" style="fill: #475569; font-family: system-ui; text-anchor: middle">arrangement graph</text>
  <text x="750" y="48" font-size="11" style="fill: #475569; font-family: system-ui; text-anchor: middle">intersection</text>
  <path d="M 55 83.66667 H 150 V 210.33333 H 55 Z" style="fill: #2563eb; fill-opacity: 0.16; fill-rule: nonzero; stroke: #2563eb; stroke-width: 1.5" />
  <path d="M 150 107.41667 H 245 V 186.58333 H 150 Z" style="fill: #e11d48; fill-opacity: 0.16; fill-rule: nonzero; stroke: #e11d48; stroke-width: 1.5" />
  <path d="" style="fill: #7c3aed; fill-opacity: 0.24; fill-rule: nonzero; stroke: #7c3aed; stroke-width: 2" />
  <path d="M 150 83.66667 L 141 87.16667 V 80.16667 Z" style="fill: #2563eb; fill-opacity: 1.0; stroke: none" />
  <path d="M 150 210.33333 L 146.5 201.33333 H 153.5 Z" style="fill: #2563eb; fill-opacity: 1.0; stroke: none" />
  <path d="M 55 210.33333 L 64 206.83333 V 213.83333 Z" style="fill: #2563eb; fill-opacity: 1.0; stroke: none" />
  <path d="M 55 83.66667 L 58.5 92.66667 H 51.5 Z" style="fill: #2563eb; fill-opacity: 1.0; stroke: none" />
  <path d="M 245 107.41667 L 236 110.91667 V 103.91667 Z" style="fill: #e11d48; fill-opacity: 1.0; stroke: none" />
  <path d="M 245 186.58333 L 241.5 177.58333 H 248.5 Z" style="fill: #e11d48; fill-opacity: 1.0; stroke: none" />
  <path d="M 150 186.58333 L 159 183.08333 V 190.08333 Z" style="fill: #e11d48; fill-opacity: 1.0; stroke: none" />
  <path d="M 150 107.41667 L 153.5 116.41667 H 146.5 Z" style="fill: #e11d48; fill-opacity: 1.0; stroke: none" />
  <path d="M 355 83.66667 H 450" style="fill: none; stroke: #334155; stroke-width: 3.25" />
  <path d="M 445 83.66667 L 435 91.66667 V 75.66667 Z" style="fill: #dc2626; fill-opacity: 1.0; stroke: none" />
  <rect x="382.1" y="69.26667" width="40.8" height="28.8" style="fill: #fff; stroke: #94a3b8; stroke-width: 0.75" transform="rotate(90 402.5 83.66667)" />
  <text x="402.5" y="81.26667" font-size="10.8" style="fill: #0f172a; font-family: ui-monospace, monospace; font-weight: 700; text-anchor: middle" transform="rotate(90 402.5 83.66667)">0/1</text>
  <text x="402.5" y="94.46667" font-size="9.6" style="fill: #dc2626; font-family: ui-monospace, monospace; font-weight: 700; text-anchor: middle" transform="rotate(90 402.5 83.66667)">↑1/0↓</text>
  <path d="M 450 83.66667 V 107.41667" style="fill: none; stroke: #334155; stroke-width: 3.25" />
  <path d="M 450 102.41667 L 442 92.41667 H 458 Z" style="fill: #dc2626; fill-opacity: 1.0; stroke: none" />
  <rect x="444.15625" y="91.41667" width="11.6875" height="8.25" style="fill: #fff; stroke: #94a3b8; stroke-width: 0.75" transform="rotate(180 450 95.54167)" />
  <text x="450" y="94.85417" font-size="3.09375" style="fill: #0f172a; font-family: ui-monospace, monospace; font-weight: 700; text-anchor: middle" transform="rotate(180 450 95.54167)">0/1</text>
  <text x="450" y="98.63542" font-size="2.75" style="fill: #dc2626; font-family: ui-monospace, monospace; font-weight: 700; text-anchor: middle" transform="rotate(180 450 95.54167)">↑1/0↓</text>
  <path d="M 450 107.41667 V 186.58333" style="fill: none; stroke: #334155; stroke-width: 3.25" />
  <path d="M 450 181.58333 L 442 171.58333 H 458 Z" style="fill: #dc2626; fill-opacity: 1.0; stroke: none" />
  <rect x="429.6" y="132.6" width="40.8" height="28.8" style="fill: #fff; stroke: #94a3b8; stroke-width: 0.75" transform="rotate(180 450 147)" />
  <text x="450" y="144.6" font-size="10.8" style="fill: #0f172a; font-family: ui-monospace, monospace; font-weight: 700; text-anchor: middle" transform="rotate(180 450 147)">1/1</text>
  <text x="450" y="157.8" font-size="9.6" style="fill: #dc2626; font-family: ui-monospace, monospace; font-weight: 700; text-anchor: middle" transform="rotate(180 450 147)">↑1/1↓</text>
  <path d="M 450 186.58333 V 210.33333" style="fill: none; stroke: #334155; stroke-width: 3.25" />
  <path d="M 450 205.33333 L 442 195.33333 H 458 Z" style="fill: #dc2626; fill-opacity: 1.0; stroke: none" />
  <rect x="444.15625" y="194.33333" width="11.6875" height="8.25" style="fill: #fff; stroke: #94a3b8; stroke-width: 0.75" transform="rotate(180 450 198.45833)" />
  <text x="450" y="197.77083" font-size="3.09375" style="fill: #0f172a; font-family: ui-monospace, monospace; font-weight: 700; text-anchor: middle" transform="rotate(180 450 198.45833)">0/1</text>
  <text x="450" y="201.55208" font-size="2.75" style="fill: #dc2626; font-family: ui-monospace, monospace; font-weight: 700; text-anchor: middle" transform="rotate(180 450 198.45833)">↑1/0↓</text>
  <path d="M 450 210.33333 H 355" style="fill: none; stroke: #334155; stroke-width: 3.25" />
  <path d="M 360 210.33333 L 370 202.33333 V 218.33333 Z" style="fill: #dc2626; fill-opacity: 1.0; stroke: none" />
  <rect x="382.1" y="195.93333" width="40.8" height="28.8" style="fill: #fff; stroke: #94a3b8; stroke-width: 0.75" transform="rotate(270 402.5 210.33333)" />
  <text x="402.5" y="207.93333" font-size="10.8" style="fill: #0f172a; font-family: ui-monospace, monospace; font-weight: 700; text-anchor: middle" transform="rotate(270 402.5 210.33333)">0/1</text>
  <text x="402.5" y="221.13333" font-size="9.6" style="fill: #dc2626; font-family: ui-monospace, monospace; font-weight: 700; text-anchor: middle" transform="rotate(270 402.5 210.33333)">↑1/0↓</text>
  <path d="M 355 210.33333 V 83.66667" style="fill: none; stroke: #334155; stroke-width: 3.25" />
  <path d="M 355 88.66667 L 363 98.66667 H 347 Z" style="fill: #dc2626; fill-opacity: 1.0; stroke: none" />
  <rect x="334.6" y="132.6" width="40.8" height="28.8" style="fill: #fff; stroke: #94a3b8; stroke-width: 0.75" transform="rotate(0 355 147)" />
  <text x="355" y="144.6" font-size="10.8" style="fill: #0f172a; font-family: ui-monospace, monospace; font-weight: 700; text-anchor: middle" transform="rotate(0 355 147)">0/1</text>
  <text x="355" y="157.8" font-size="9.6" style="fill: #dc2626; font-family: ui-monospace, monospace; font-weight: 700; text-anchor: middle" transform="rotate(0 355 147)">↑1/0↓</text>
  <path d="M 450 107.41667 H 545" style="fill: none; stroke: #334155; stroke-width: 3.25" />
  <path d="M 540 107.41667 L 530 115.41667 V 99.41667 Z" style="fill: #dc2626; fill-opacity: 1.0; stroke: none" />
  <rect x="477.1" y="93.01667" width="40.8" height="28.8" style="fill: #fff; stroke: #94a3b8; stroke-width: 0.75" transform="rotate(90 497.5 107.41667)" />
  <text x="497.5" y="105.01667" font-size="10.8" style="fill: #0f172a; font-family: ui-monospace, monospace; font-weight: 700; text-anchor: middle" transform="rotate(90 497.5 107.41667)">0/1</text>
  <text x="497.5" y="118.21667" font-size="9.6" style="fill: #dc2626; font-family: ui-monospace, monospace; font-weight: 700; text-anchor: middle" transform="rotate(90 497.5 107.41667)">↑1/0↓</text>
  <path d="M 545 107.41667 V 186.58333" style="fill: none; stroke: #334155; stroke-width: 3.25" />
  <path d="M 545 181.58333 L 537 171.58333 H 553 Z" style="fill: #dc2626; fill-opacity: 1.0; stroke: none" />
  <rect x="524.6" y="132.6" width="40.8" height="28.8" style="fill: #fff; stroke: #94a3b8; stroke-width: 0.75" transform="rotate(180 545 147)" />
  <text x="545" y="144.6" font-size="10.8" style="fill: #0f172a; font-family: ui-monospace, monospace; font-weight: 700; text-anchor: middle" transform="rotate(180 545 147)">0/1</text>
  <text x="545" y="157.8" font-size="9.6" style="fill: #dc2626; font-family: ui-monospace, monospace; font-weight: 700; text-anchor: middle" transform="rotate(180 545 147)">↑1/0↓</text>
  <path d="M 545 186.58333 H 450" style="fill: none; stroke: #334155; stroke-width: 3.25" />
  <path d="M 455 186.58333 L 465 178.58333 V 194.58333 Z" style="fill: #dc2626; fill-opacity: 1.0; stroke: none" />
  <rect x="477.1" y="172.18333" width="40.8" height="28.8" style="fill: #fff; stroke: #94a3b8; stroke-width: 0.75" transform="rotate(270 497.5 186.58333)" />
  <text x="497.5" y="184.18333" font-size="10.8" style="fill: #0f172a; font-family: ui-monospace, monospace; font-weight: 700; text-anchor: middle" transform="rotate(270 497.5 186.58333)">0/1</text>
  <text x="497.5" y="197.38333" font-size="9.6" style="fill: #dc2626; font-family: ui-monospace, monospace; font-weight: 700; text-anchor: middle" transform="rotate(270 497.5 186.58333)">↑1/0↓</text>
  <circle cx="355" cy="83.66667" r="5" style="fill: #fff; stroke: #dc2626; stroke-width: 2.25" />
  <circle cx="450" cy="83.66667" r="5" style="fill: #fff; stroke: #dc2626; stroke-width: 2.25" />
  <circle cx="450" cy="210.33333" r="5" style="fill: #fff; stroke: #dc2626; stroke-width: 2.25" />
  <circle cx="355" cy="210.33333" r="5" style="fill: #fff; stroke: #dc2626; stroke-width: 2.25" />
  <circle cx="450" cy="107.41667" r="5" style="fill: #fff; stroke: #dc2626; stroke-width: 2.25" />
  <circle cx="545" cy="107.41667" r="5" style="fill: #fff; stroke: #dc2626; stroke-width: 2.25" />
  <circle cx="545" cy="186.58333" r="5" style="fill: #fff; stroke: #dc2626; stroke-width: 2.25" />
  <circle cx="450" cy="186.58333" r="5" style="fill: #fff; stroke: #dc2626; stroke-width: 2.25" />
  <text x="750" y="158" font-size="28" style="fill: #7c3aed; font-family: system-ui; text-anchor: middle">∅</text>
</svg>